<?xml version="1.0" encoding="UTF-8" standalone="no"?>
<!-- Generated by graphviz version 2.43.0 (0)
 -->

<!-- Pages: 1 -->

<svg
   xmlns:dc="http://purl.org/dc/elements/1.1/"
   xmlns:cc="http://creativecommons.org/ns#"
   xmlns:rdf="http://www.w3.org/1999/02/22-rdf-syntax-ns#"
   xmlns:svg="http://www.w3.org/2000/svg"
   xmlns="http://www.w3.org/2000/svg"
   xmlns:sodipodi="http://sodipodi.sourceforge.net/DTD/sodipodi-0.dtd"
   xmlns:inkscape="http://www.inkscape.org/namespaces/inkscape"
   width="1404pt"
   height="836pt"
   viewBox="0.00 0.00 1403.50 836.00"
   version="1.1"
   id="svg271"
   sodipodi:docname="pipeline_flow.svg"
   inkscape:version="0.92.5 (2060ec1f9f, 2020-04-08)">
  <metadata
     id="metadata277">
    <rdf:RDF>
      <cc:Work
         rdf:about="">
        <dc:format>image/svg+xml</dc:format>
        <dc:type
           rdf:resource="http://purl.org/dc/dcmitype/StillImage" />
      </cc:Work>
    </rdf:RDF>
  </metadata>
  <defs
     id="defs275" />
  <sodipodi:namedview
     pagecolor="#ffffff"
     bordercolor="#666666"
     borderopacity="1"
     objecttolerance="10"
     gridtolerance="10"
     guidetolerance="10"
     inkscape:pageopacity="0"
     inkscape:pageshadow="2"
     inkscape:window-width="3696"
     inkscape:window-height="2272"
     id="namedview273"
     showgrid="false"
     inkscape:zoom="1.1976833"
     inkscape:cx="1379.6656"
     inkscape:cy="490.53771"
     inkscape:window-x="144"
     inkscape:window-y="54"
     inkscape:window-maximized="1"
     inkscape:current-layer="graph0" />
  <g
     id="graph0"
     class="graph"
     transform="scale(1 1) rotate(0) translate(4 832)">
    <polygon
       stroke="transparent"
       points="-4,4 -4,-832 1399.5,-832 1399.5,4 -4,4"
       id="polygon2"
       fill="white" />
    <!-- 0 -->
    <g
       id="node1"
       class="node">
      <title
         id="title4">0</title>
      <polygon
         points="965,-828 836,-828 836,-792 965,-792 965,-828"
         id="polygon6"
         stroke="black"
         fill="none" />
      <text
         x="900.5"
         y="-806.3"
         font-size="14.00"
         id="text8"
         text-anchor="middle"
         font-family="Times,serif">Input fastq files</text>
    </g>
    <!-- 1 -->
    <g
       id="node2"
       class="node">
      <title
         id="title11">1</title>
      <polygon
         points="947,-756 706,-756 706,-720 947,-720 947,-756"
         id="polygon13"
         stroke="black"
         fill="none" />
      <text
         x="826.5"
         y="-734.3"
         font-size="14.00"
         id="text15"
         text-anchor="middle"
         font-family="Times,serif">Fastq files are split into chunks</text>
    </g>
    <!-- 0&#45;&gt;1 -->
    <g
       id="edge1"
       class="edge">
      <title
         id="title18">0-&gt;1</title>
      <path
         d="M891.5,-791.83C891.5,-791.83 891.5,-766.41 891.5,-766.41"
         id="path20"
         stroke="black"
         fill="none" />
      <polygon
         points="895,-766.41 891.5,-756.41 888,-766.41 895,-766.41"
         id="polygon22"
         stroke="black"
         fill="black" />
    </g>
    <!-- 16 -->
    <g
       id="node3"
       class="node">
      <title
         id="title25">16</title>
      <polygon
         points="1085.5,-684 925.5,-684 925.5,-648 1085.5,-648 1085.5,-684"
         id="polygon27"
         stroke="black"
         fill="none" />
      <text
         x="1005.5"
         y="-662.3"
         font-size="14.00"
         id="text29"
         text-anchor="middle"
         font-family="Times,serif">Fastq quality report</text>
    </g>
    <!-- 0&#45;&gt;16 -->
    <g
       id="edge2"
       class="edge">
      <title
         id="title32">0-&gt;16</title>
      <path
         d="M956,-791.76C956,-791.76 956,-694.09 956,-694.09"
         id="path34"
         stroke="black"
         fill="none" />
      <polygon
         points="959.5,-694.09 956,-684.09 952.5,-694.09 959.5,-694.09"
         id="polygon36"
         stroke="black"
         fill="black" />
    </g>
    <!-- 2 -->
    <g
       id="node4"
       class="node">
      <title
         id="title39">2</title>
      <polygon
         points="907.5,-684 687.5,-684 687.5,-648 907.5,-648 907.5,-684"
         id="polygon41"
         stroke="black"
         fill="none" />
      <text
         x="797.5"
         y="-662.3"
         font-size="14.00"
         id="text43"
         text-anchor="middle"
         font-family="Times,serif">PCR duplicates are removed</text>
    </g>
    <!-- 1&#45;&gt;2 -->
    <g
       id="edge3"
       class="edge">
      <title
         id="title46">1-&gt;2</title>
      <path
         d="M806.75,-719.83C806.75,-719.83 806.75,-694.41 806.75,-694.41"
         id="path48"
         stroke="black"
         fill="none" />
      <polygon
         points="810.25,-694.41 806.75,-684.41 803.25,-694.41 810.25,-694.41"
         id="polygon50"
         stroke="black"
         fill="black" />
    </g>
    <!-- 18 -->
    <g
       id="node5"
       class="node">
      <title
         id="title53">18</title>
      <polygon
         points="1053.5,-252 889.5,-252 889.5,-216 1053.5,-216 1053.5,-252"
         id="polygon55"
         stroke="black"
         fill="none" />
      <text
         x="971.5"
         y="-230.3"
         font-size="14.00"
         id="text57"
         text-anchor="middle"
         font-family="Times,serif">Run statistics report</text>
    </g>
    <!-- 16&#45;&gt;18 -->
    <g
       id="edge4"
       class="edge">
      <title
         id="title60">16-&gt;18</title>
      <path
         d="M1015.2,-647.99C1015.2,-647.99 1015.2,-262.09 1015.2,-262.09"
         id="path62"
         stroke="black"
         fill="none" />
      <polygon
         points="1018.7,-262.09 1015.2,-252.09 1011.7,-262.09 1018.7,-262.09"
         id="polygon64"
         stroke="black"
         fill="black" />
    </g>
    <!-- 3 -->
    <g
       id="node6"
       class="node">
      <title
         id="title67">3</title>
      <polygon
         points="930.5,-612 664.5,-612 664.5,-576 930.5,-576 930.5,-612"
         id="polygon69"
         stroke="black"
         fill="none" />
      <text
         x="797.5"
         y="-590.3"
         font-size="14.00"
         id="text71"
         text-anchor="middle"
         font-family="Times,serif">Sequencing adapters are removed.</text>
    </g>
    <!-- 2&#45;&gt;3 -->
    <g
       id="edge5"
       class="edge">
      <title
         id="title74">2-&gt;3</title>
      <path
         d="M797.5,-647.83C797.5,-647.83 797.5,-622.41 797.5,-622.41"
         id="path76"
         stroke="black"
         fill="none" />
      <polygon
         points="801,-622.41 797.5,-612.41 794,-622.41 801,-622.41"
         id="polygon78"
         stroke="black"
         fill="black" />
    </g>
    <!-- 4 -->
    <g
       id="node7"
       class="node">
      <title
         id="title81">4</title>
      <polygon
         points="938.5,-540 656.5,-540 656.5,-504 938.5,-504 938.5,-540"
         id="polygon83"
         stroke="black"
         fill="none" />
      <text
         x="797.5"
         y="-518.3"
         font-size="14.00"
         id="text85"
         text-anchor="middle"
         font-family="Times,serif">Read pairs are combined with FLASh</text>
    </g>
    <!-- 3&#45;&gt;4 -->
    <g
       id="edge6"
       class="edge">
      <title
         id="title88">3-&gt;4</title>
      <path
         d="M797.5,-575.83C797.5,-575.83 797.5,-550.41 797.5,-550.41"
         id="path90"
         stroke="black"
         fill="none" />
      <polygon
         points="801,-550.41 797.5,-540.41 794,-550.41 801,-550.41"
         id="polygon92"
         stroke="black"
         fill="black" />
    </g>
    <!-- 5 -->
    <g
       id="node8"
       class="node">
      <title
         id="title95">5</title>
      <polygon
         points="869,-468 726,-468 726,-432 869,-432 869,-468"
         id="polygon97"
         stroke="black"
         fill="none" />
      <text
         x="797.5"
         y="-446.3"
         font-size="14.00"
         id="text99"
         text-anchor="middle"
         font-family="Times,serif">In silico digestion</text>
    </g>
    <!-- 4&#45;&gt;5 -->
    <g
       id="edge7"
       class="edge">
      <title
         id="title102">4-&gt;5</title>
      <path
         d="M797.5,-503.83C797.5,-503.83 797.5,-478.41 797.5,-478.41"
         id="path104"
         stroke="black"
         fill="none" />
      <polygon
         points="801,-478.41 797.5,-468.41 794,-478.41 801,-478.41"
         id="polygon106"
         stroke="black"
         fill="black" />
    </g>
    <!-- 6 -->
    <g
       id="node9"
       class="node">
      <title
         id="title109">6</title>
      <polygon
         points="932.5,-396 662.5,-396 662.5,-360 932.5,-360 932.5,-396"
         id="polygon111"
         stroke="black"
         fill="none" />
      <text
         x="797.5"
         y="-374.3"
         font-size="14.00"
         id="text113"
         text-anchor="middle"
         font-family="Times,serif">Alignment to the reference genome</text>
    </g>
    <!-- 5&#45;&gt;6 -->
    <g
       id="edge8"
       class="edge">
      <title
         id="title116">5-&gt;6</title>
      <path
         d="M797.5,-431.83C797.5,-431.83 797.5,-406.41 797.5,-406.41"
         id="path118"
         stroke="black"
         fill="none" />
      <polygon
         points="801,-406.41 797.5,-396.41 794,-406.41 801,-406.41"
         id="polygon120"
         stroke="black"
         fill="black" />
    </g>
    <!-- 7 -->
    <g
       id="node10"
       class="node">
      <title
         id="title123">7</title>
      <polygon
         points="776,-324 599,-324 599,-288 776,-288 776,-324"
         id="polygon125"
         stroke="black"
         fill="none" />
      <text
         x="687.5"
         y="-302.3"
         font-size="14.00"
         id="text127"
         text-anchor="middle"
         font-family="Times,serif">Annotated and filtered</text>
    </g>
    <!-- 6&#45;&gt;7 -->
    <g
       id="edge9"
       class="edge">
      <title
         id="title130">6-&gt;7</title>
      <path
         d="M719.25,-359.83C719.25,-359.83 719.25,-334.41 719.25,-334.41"
         id="path132"
         stroke="black"
         fill="none" />
      <polygon
         points="722.75,-334.41 719.25,-324.41 715.75,-334.41 722.75,-334.41"
         id="polygon134"
         stroke="black"
         fill="black" />
    </g>
    <!-- 17 -->
    <g
       id="node11"
       class="node">
      <title
         id="title137">17</title>
      <polygon
         points="977,-324 794,-324 794,-288 977,-288 977,-324"
         id="polygon139"
         stroke="black"
         fill="none" />
      <text
         x="885.5"
         y="-302.3"
         font-size="14.00"
         id="text141"
         text-anchor="middle"
         font-family="Times,serif">Mapping quality report</text>
    </g>
    <!-- 6&#45;&gt;17 -->
    <g
       id="edge10"
       class="edge">
      <title
         id="title144">6-&gt;17</title>
      <path
         d="M863.25,-359.83C863.25,-359.83 863.25,-334.41 863.25,-334.41"
         id="path146"
         stroke="black"
         fill="none" />
      <polygon
         points="866.75,-334.41 863.25,-324.41 859.75,-334.41 866.75,-334.41"
         id="polygon148"
         stroke="black"
         fill="black" />
    </g>
    <!-- 8 -->
    <g
       id="node12"
       class="node">
      <title
         id="title151">8</title>
      <polygon
         points="838.5,-252 536.5,-252 536.5,-216 838.5,-216 838.5,-252"
         id="polygon153"
         stroke="black"
         fill="none" />
      <text
         x="687.5"
         y="-230.3"
         font-size="14.00"
         id="text155"
         text-anchor="middle"
         font-family="Times,serif">Reporters are combined from partitions</text>
    </g>
    <!-- 7&#45;&gt;8 -->
    <g
       id="edge11"
       class="edge">
      <title
         id="title158">7-&gt;8</title>
      <path
         d="M687.5,-287.83C687.5,-287.83 687.5,-262.41 687.5,-262.41"
         id="path160"
         stroke="black"
         fill="none" />
      <polygon
         points="691,-262.41 687.5,-252.41 684,-262.41 691,-262.41"
         id="polygon162"
         stroke="black"
         fill="black" />
    </g>
    <!-- 17&#45;&gt;18 -->
    <g
       id="edge12"
       class="edge">
      <title
         id="title165">17-&gt;18</title>
      <path
         d="M933.25,-287.83C933.25,-287.83 933.25,-262.41 933.25,-262.41"
         id="path167"
         stroke="black"
         fill="none" />
      <polygon
         points="936.75,-262.41 933.25,-252.41 929.75,-262.41 936.75,-262.41"
         id="polygon169"
         stroke="black"
         fill="black" />
    </g>
    <!-- 9 -->
    <g
       id="node13"
       class="node">
      <title
         id="title172">9</title>
      <polygon
         points="839,-180 536,-180 536,-144 839,-144 839,-180"
         id="polygon174"
         stroke="black"
         fill="none" />
      <text
         x="687.5"
         y="-158.3"
         font-size="14.00"
         id="text176"
         text-anchor="middle"
         font-family="Times,serif">PCR duplicates are stringently removed</text>
    </g>
    <!-- 8&#45;&gt;9 -->
    <g
       id="edge13"
       class="edge">
      <title
         id="title179">8-&gt;9</title>
      <path
         d="M687.5,-215.83C687.5,-215.83 687.5,-190.41 687.5,-190.41"
         id="path181"
         stroke="black"
         fill="none" />
      <polygon
         points="691,-190.41 687.5,-180.41 684,-190.41 691,-190.41"
         id="polygon183"
         stroke="black"
         fill="black" />
    </g>
    <!-- 10 -->
    <g
       id="node14"
       class="node">
      <title
         id="title186">10</title>
      <polygon
         points="811.5,-108 563.5,-108 563.5,-72 811.5,-72 811.5,-108"
         id="polygon188"
         stroke="black"
         fill="none" />
      <text
         x="687.5"
         y="-86.3"
         font-size="14.00"
         id="text190"
         text-anchor="middle"
         font-family="Times,serif">Reporter interactions are stored</text>
    </g>
    <!-- 9&#45;&gt;10 -->
    <g
       id="edge14"
       class="edge">
      <title
         id="title193">9-&gt;10</title>
      <path
         d="M687.5,-143.83C687.5,-143.83 687.5,-118.41 687.5,-118.41"
         id="path195"
         stroke="black"
         fill="none" />
      <polygon
         points="691,-118.41 687.5,-108.41 684,-118.41 691,-118.41"
         id="polygon197"
         stroke="black"
         fill="black" />
    </g>
    <!-- 11 -->
    <g
       id="node15"
       class="node">
      <title
         id="title200">11</title>
      <polygon
         points="295,-36 0,-36 0,0 295,0 295,-36"
         id="polygon202"
         stroke="black"
         fill="none" />
      <text
         x="147.5"
         y="-14.3"
         font-size="14.00"
         id="text204"
         text-anchor="middle"
         font-family="Times,serif">Interaction pileups (BedGraph/BigWig)</text>
    </g>
    <!-- 10&#45;&gt;11 -->
    <g
       id="edge15"
       class="edge">
      <title
         id="title207">10-&gt;11</title>
      <path
         d="M563.27,-96C403.82,-96 147.5,-96 147.5,-96 147.5,-96 147.5,-46.09 147.5,-46.09"
         id="path209"
         stroke="black"
         fill="none" />
      <polygon
         points="151,-46.09 147.5,-36.09 144,-46.09 151,-46.09"
         id="polygon211"
         stroke="black"
         fill="black" />
    </g>
    <!-- 12 -->
    <g
       id="node16"
       class="node">
      <title
         id="title214">12</title>
      <polygon
         points="503.5,-36 313.5,-36 313.5,0 503.5,0 503.5,-36"
         id="polygon216"
         stroke="black"
         fill="none" />
      <text
         x="408.5"
         y="-14.3"
         font-size="14.00"
         id="text218"
         text-anchor="middle"
         font-family="Times,serif">Heatmap of interactions</text>
    </g>
    <!-- 10&#45;&gt;12 -->
    <g
       id="edge16"
       class="edge">
      <title
         id="title221">10-&gt;12</title>
      <path
         d="M563.1,-84C488.7,-84 408.5,-84 408.5,-84 408.5,-84 408.5,-46.03 408.5,-46.03"
         id="path223"
         stroke="black"
         fill="none" />
      <polygon
         points="412,-46.03 408.5,-36.03 405,-46.04 412,-46.03"
         id="polygon225"
         stroke="black"
         fill="black" />
    </g>
    <!-- 13 -->
    <g
       id="node17"
       class="node">
      <title
         id="title228">13</title>
      <polygon
         points="853,-36 522,-36 522,0 853,0 853,-36"
         id="polygon230"
         stroke="black"
         fill="none" />
      <text
         x="687.5"
         y="-14.3"
         font-size="14.00"
         id="text232"
         text-anchor="middle"
         font-family="Times,serif">Differential interactions between conditions</text>
    </g>
    <!-- 10&#45;&gt;13 -->
    <g
       id="edge17"
       class="edge">
      <title
         id="title235">10-&gt;13</title>
      <path
         d="M687.5,-71.83C687.5,-71.83 687.5,-46.41 687.5,-46.41"
         id="path237"
         stroke="black"
         fill="none" />
      <polygon
         points="691,-46.41 687.5,-36.41 684,-46.41 691,-46.41"
         id="polygon239"
         stroke="black"
         fill="black" />
    </g>
    <!-- 14 -->
    <g
       id="node18"
       class="node">
      <title
         id="title242">14</title>
      <polygon
         points="1171.5,-36 871.5,-36 871.5,0 1171.5,0 1171.5,-36"
         id="polygon244"
         stroke="black"
         fill="none" />
      <text
         x="1021.5"
         y="-14.3"
         font-size="14.00"
         id="text246"
         style="font-size:14px;font-family:Times, serif;text-anchor:middle">Subtraction of pileups between conditions</text>
    </g>
    <!-- 10&#45;&gt;14 -->
    <g
       id="edge18"
       class="edge">
      <title
         id="title249">10-&gt;14</title>
      <path
         d="M811.64,-84C849.11,-84 880.5,-84 880.5,-84 880.5,-84 880.5,-46.03 880.5,-46.03"
         id="path251"
         stroke="black"
         fill="none" />
      <polygon
         points="884,-46.03 880.5,-36.03 877,-46.04 884,-46.03"
         id="polygon253"
         stroke="black"
         fill="black" />
    </g>
    <!-- 15 -->
    <g
       id="node19"
       class="node">
      <title
         id="title256">15</title>
      <polygon
         points="1395.5,-36 1189.5,-36 1189.5,0 1395.5,0 1395.5,-36"
         id="polygon258"
         stroke="black"
         fill="none" />
      <text
         x="1292.5"
         y="-14.3"
         font-size="14.00"
         id="text260"
         text-anchor="middle"
         font-family="Times,serif">Generation of a UCSC hub</text>
    </g>
    <!-- 10&#45;&gt;15 -->
    <g
       id="edge19"
       class="edge">
      <title
         id="title263">10-&gt;15</title>
      <path
         d="M811.76,-96C988.81,-96 1292.5,-96 1292.5,-96 1292.5,-96 1292.5,-46.09 1292.5,-46.09"
         id="path265"
         stroke="black"
         fill="none" />
      <polygon
         points="1296,-46.09 1292.5,-36.09 1289,-46.09 1296,-46.09"
         id="polygon267"
         stroke="black"
         fill="black" />
    </g>
  </g>
</svg>
