<?xml version="1.0" encoding="UTF-8" standalone="no"?>
<!DOCTYPE svg PUBLIC "-//W3C//DTD SVG 1.1//EN"
 "http://www.w3.org/Graphics/SVG/1.1/DTD/svg11.dtd">
<!-- Generated by graphviz version 2.43.0 (0)
 -->
<!-- Pages: 1 -->
<svg width="1404pt" height="836pt"
 viewBox="0.00 0.00 1403.50 836.00" xmlns="http://www.w3.org/2000/svg" xmlns:xlink="http://www.w3.org/1999/xlink">
<g id="graph0" class="graph" transform="scale(1 1) rotate(0) translate(4 832)">
<polygon fill="white" stroke="transparent" points="-4,4 -4,-832 1399.5,-832 1399.5,4 -4,4"/>
<!-- 0 -->
<g id="node1" class="node">
<title>0</title>
<polygon fill="none" stroke="black" points="965,-828 836,-828 836,-792 965,-792 965,-828"/>
<text text-anchor="middle" x="900.5" y="-806.3" font-family="Times,serif" font-size="14.00">Input fastq files</text>
</g>
<!-- 1 -->
<g id="node2" class="node">
<title>1</title>
<polygon fill="none" stroke="black" points="947,-756 706,-756 706,-720 947,-720 947,-756"/>
<text text-anchor="middle" x="826.5" y="-734.3" font-family="Times,serif" font-size="14.00">Fastq files are split into chunks</text>
</g>
<!-- 0&#45;&gt;1 -->
<g id="edge1" class="edge">
<title>0&#45;&gt;1</title>
<path fill="none" stroke="black" d="M891.5,-791.83C891.5,-791.83 891.5,-766.41 891.5,-766.41"/>
<polygon fill="black" stroke="black" points="895,-766.41 891.5,-756.41 888,-766.41 895,-766.41"/>
</g>
<!-- 16 -->
<g id="node3" class="node">
<title>16</title>
<polygon fill="none" stroke="black" points="1085.5,-684 925.5,-684 925.5,-648 1085.5,-648 1085.5,-684"/>
<text text-anchor="middle" x="1005.5" y="-662.3" font-family="Times,serif" font-size="14.00">Fastq quality report</text>
</g>
<!-- 0&#45;&gt;16 -->
<g id="edge2" class="edge">
<title>0&#45;&gt;16</title>
<path fill="none" stroke="black" d="M956,-791.76C956,-791.76 956,-694.09 956,-694.09"/>
<polygon fill="black" stroke="black" points="959.5,-694.09 956,-684.09 952.5,-694.09 959.5,-694.09"/>
</g>
<!-- 2 -->
<g id="node4" class="node">
<title>2</title>
<polygon fill="none" stroke="black" points="907.5,-684 687.5,-684 687.5,-648 907.5,-648 907.5,-684"/>
<text text-anchor="middle" x="797.5" y="-662.3" font-family="Times,serif" font-size="14.00">PCR duplicates are removed</text>
</g>
<!-- 1&#45;&gt;2 -->
<g id="edge3" class="edge">
<title>1&#45;&gt;2</title>
<path fill="none" stroke="black" d="M806.75,-719.83C806.75,-719.83 806.75,-694.41 806.75,-694.41"/>
<polygon fill="black" stroke="black" points="810.25,-694.41 806.75,-684.41 803.25,-694.41 810.25,-694.41"/>
</g>
<!-- 18 -->
<g id="node5" class="node">
<title>18</title>
<polygon fill="none" stroke="black" points="1053.5,-252 889.5,-252 889.5,-216 1053.5,-216 1053.5,-252"/>
<text text-anchor="middle" x="971.5" y="-230.3" font-family="Times,serif" font-size="14.00">Run statistics report</text>
</g>
<!-- 16&#45;&gt;18 -->
<g id="edge4" class="edge">
<title>16&#45;&gt;18</title>
<path fill="none" stroke="black" d="M1015.2,-647.99C1015.2,-647.99 1015.2,-262.09 1015.2,-262.09"/>
<polygon fill="black" stroke="black" points="1018.7,-262.09 1015.2,-252.09 1011.7,-262.09 1018.7,-262.09"/>
</g>
<!-- 3 -->
<g id="node6" class="node">
<title>3</title>
<polygon fill="none" stroke="black" points="930.5,-612 664.5,-612 664.5,-576 930.5,-576 930.5,-612"/>
<text text-anchor="middle" x="797.5" y="-590.3" font-family="Times,serif" font-size="14.00">Sequencing adapters are removed.</text>
</g>
<!-- 2&#45;&gt;3 -->
<g id="edge5" class="edge">
<title>2&#45;&gt;3</title>
<path fill="none" stroke="black" d="M797.5,-647.83C797.5,-647.83 797.5,-622.41 797.5,-622.41"/>
<polygon fill="black" stroke="black" points="801,-622.41 797.5,-612.41 794,-622.41 801,-622.41"/>
</g>
<!-- 4 -->
<g id="node7" class="node">
<title>4</title>
<polygon fill="none" stroke="black" points="938.5,-540 656.5,-540 656.5,-504 938.5,-504 938.5,-540"/>
<text text-anchor="middle" x="797.5" y="-518.3" font-family="Times,serif" font-size="14.00">Read pairs are combined with FLASh</text>
</g>
<!-- 3&#45;&gt;4 -->
<g id="edge6" class="edge">
<title>3&#45;&gt;4</title>
<path fill="none" stroke="black" d="M797.5,-575.83C797.5,-575.83 797.5,-550.41 797.5,-550.41"/>
<polygon fill="black" stroke="black" points="801,-550.41 797.5,-540.41 794,-550.41 801,-550.41"/>
</g>
<!-- 5 -->
<g id="node8" class="node">
<title>5</title>
<polygon fill="none" stroke="black" points="869,-468 726,-468 726,-432 869,-432 869,-468"/>
<text text-anchor="middle" x="797.5" y="-446.3" font-family="Times,serif" font-size="14.00">In silico digestion</text>
</g>
<!-- 4&#45;&gt;5 -->
<g id="edge7" class="edge">
<title>4&#45;&gt;5</title>
<path fill="none" stroke="black" d="M797.5,-503.83C797.5,-503.83 797.5,-478.41 797.5,-478.41"/>
<polygon fill="black" stroke="black" points="801,-478.41 797.5,-468.41 794,-478.41 801,-478.41"/>
</g>
<!-- 6 -->
<g id="node9" class="node">
<title>6</title>
<polygon fill="none" stroke="black" points="932.5,-396 662.5,-396 662.5,-360 932.5,-360 932.5,-396"/>
<text text-anchor="middle" x="797.5" y="-374.3" font-family="Times,serif" font-size="14.00">Alignment to the reference genome</text>
</g>
<!-- 5&#45;&gt;6 -->
<g id="edge8" class="edge">
<title>5&#45;&gt;6</title>
<path fill="none" stroke="black" d="M797.5,-431.83C797.5,-431.83 797.5,-406.41 797.5,-406.41"/>
<polygon fill="black" stroke="black" points="801,-406.41 797.5,-396.41 794,-406.41 801,-406.41"/>
</g>
<!-- 7 -->
<g id="node10" class="node">
<title>7</title>
<polygon fill="none" stroke="black" points="776,-324 599,-324 599,-288 776,-288 776,-324"/>
<text text-anchor="middle" x="687.5" y="-302.3" font-family="Times,serif" font-size="14.00">Annotated and filtered</text>
</g>
<!-- 6&#45;&gt;7 -->
<g id="edge9" class="edge">
<title>6&#45;&gt;7</title>
<path fill="none" stroke="black" d="M719.25,-359.83C719.25,-359.83 719.25,-334.41 719.25,-334.41"/>
<polygon fill="black" stroke="black" points="722.75,-334.41 719.25,-324.41 715.75,-334.41 722.75,-334.41"/>
</g>
<!-- 17 -->
<g id="node11" class="node">
<title>17</title>
<polygon fill="none" stroke="black" points="977,-324 794,-324 794,-288 977,-288 977,-324"/>
<text text-anchor="middle" x="885.5" y="-302.3" font-family="Times,serif" font-size="14.00">Mapping quality report</text>
</g>
<!-- 6&#45;&gt;17 -->
<g id="edge10" class="edge">
<title>6&#45;&gt;17</title>
<path fill="none" stroke="black" d="M863.25,-359.83C863.25,-359.83 863.25,-334.41 863.25,-334.41"/>
<polygon fill="black" stroke="black" points="866.75,-334.41 863.25,-324.41 859.75,-334.41 866.75,-334.41"/>
</g>
<!-- 8 -->
<g id="node12" class="node">
<title>8</title>
<polygon fill="none" stroke="black" points="838.5,-252 536.5,-252 536.5,-216 838.5,-216 838.5,-252"/>
<text text-anchor="middle" x="687.5" y="-230.3" font-family="Times,serif" font-size="14.00">Reporters are combined from partitions</text>
</g>
<!-- 7&#45;&gt;8 -->
<g id="edge11" class="edge">
<title>7&#45;&gt;8</title>
<path fill="none" stroke="black" d="M687.5,-287.83C687.5,-287.83 687.5,-262.41 687.5,-262.41"/>
<polygon fill="black" stroke="black" points="691,-262.41 687.5,-252.41 684,-262.41 691,-262.41"/>
</g>
<!-- 17&#45;&gt;18 -->
<g id="edge12" class="edge">
<title>17&#45;&gt;18</title>
<path fill="none" stroke="black" d="M933.25,-287.83C933.25,-287.83 933.25,-262.41 933.25,-262.41"/>
<polygon fill="black" stroke="black" points="936.75,-262.41 933.25,-252.41 929.75,-262.41 936.75,-262.41"/>
</g>
<!-- 9 -->
<g id="node13" class="node">
<title>9</title>
<polygon fill="none" stroke="black" points="839,-180 536,-180 536,-144 839,-144 839,-180"/>
<text text-anchor="middle" x="687.5" y="-158.3" font-family="Times,serif" font-size="14.00">PCR duplicates are stringently removed</text>
</g>
<!-- 8&#45;&gt;9 -->
<g id="edge13" class="edge">
<title>8&#45;&gt;9</title>
<path fill="none" stroke="black" d="M687.5,-215.83C687.5,-215.83 687.5,-190.41 687.5,-190.41"/>
<polygon fill="black" stroke="black" points="691,-190.41 687.5,-180.41 684,-190.41 691,-190.41"/>
</g>
<!-- 10 -->
<g id="node14" class="node">
<title>10</title>
<polygon fill="none" stroke="black" points="811.5,-108 563.5,-108 563.5,-72 811.5,-72 811.5,-108"/>
<text text-anchor="middle" x="687.5" y="-86.3" font-family="Times,serif" font-size="14.00">Reporter interactions are stored</text>
</g>
<!-- 9&#45;&gt;10 -->
<g id="edge14" class="edge">
<title>9&#45;&gt;10</title>
<path fill="none" stroke="black" d="M687.5,-143.83C687.5,-143.83 687.5,-118.41 687.5,-118.41"/>
<polygon fill="black" stroke="black" points="691,-118.41 687.5,-108.41 684,-118.41 691,-118.41"/>
</g>
<!-- 11 -->
<g id="node15" class="node">
<title>11</title>
<polygon fill="none" stroke="black" points="295,-36 0,-36 0,0 295,0 295,-36"/>
<text text-anchor="middle" x="147.5" y="-14.3" font-family="Times,serif" font-size="14.00">Interaction pileups (BedGraph/BigWig)</text>
</g>
<!-- 10&#45;&gt;11 -->
<g id="edge15" class="edge">
<title>10&#45;&gt;11</title>
<path fill="none" stroke="black" d="M563.27,-96C403.82,-96 147.5,-96 147.5,-96 147.5,-96 147.5,-46.09 147.5,-46.09"/>
<polygon fill="black" stroke="black" points="151,-46.09 147.5,-36.09 144,-46.09 151,-46.09"/>
</g>
<!-- 12 -->
<g id="node16" class="node">
<title>12</title>
<polygon fill="none" stroke="black" points="503.5,-36 313.5,-36 313.5,0 503.5,0 503.5,-36"/>
<text text-anchor="middle" x="408.5" y="-14.3" font-family="Times,serif" font-size="14.00">Heatmap of interactions</text>
</g>
<!-- 10&#45;&gt;12 -->
<g id="edge16" class="edge">
<title>10&#45;&gt;12</title>
<path fill="none" stroke="black" d="M563.1,-84C488.7,-84 408.5,-84 408.5,-84 408.5,-84 408.5,-46.03 408.5,-46.03"/>
<polygon fill="black" stroke="black" points="412,-46.03 408.5,-36.03 405,-46.04 412,-46.03"/>
</g>
<!-- 13 -->
<g id="node17" class="node">
<title>13</title>
<polygon fill="none" stroke="black" points="853,-36 522,-36 522,0 853,0 853,-36"/>
<text text-anchor="middle" x="687.5" y="-14.3" font-family="Times,serif" font-size="14.00">Differential interactions between conditions</text>
</g>
<!-- 10&#45;&gt;13 -->
<g id="edge17" class="edge">
<title>10&#45;&gt;13</title>
<path fill="none" stroke="black" d="M687.5,-71.83C687.5,-71.83 687.5,-46.41 687.5,-46.41"/>
<polygon fill="black" stroke="black" points="691,-46.41 687.5,-36.41 684,-46.41 691,-46.41"/>
</g>
<!-- 14 -->
<g id="node18" class="node">
<title>14</title>
<polygon fill="none" stroke="black" points="1171.5,-36 871.5,-36 871.5,0 1171.5,0 1171.5,-36"/>
<text text-anchor="middle" x="1021.5" y="-14.3" font-family="Times,serif" font-size="14.00">Subtraction pileups between conditions</text>
</g>
<!-- 10&#45;&gt;14 -->
<g id="edge18" class="edge">
<title>10&#45;&gt;14</title>
<path fill="none" stroke="black" d="M811.64,-84C849.11,-84 880.5,-84 880.5,-84 880.5,-84 880.5,-46.03 880.5,-46.03"/>
<polygon fill="black" stroke="black" points="884,-46.03 880.5,-36.03 877,-46.04 884,-46.03"/>
</g>
<!-- 15 -->
<g id="node19" class="node">
<title>15</title>
<polygon fill="none" stroke="black" points="1395.5,-36 1189.5,-36 1189.5,0 1395.5,0 1395.5,-36"/>
<text text-anchor="middle" x="1292.5" y="-14.3" font-family="Times,serif" font-size="14.00">Generation of a UCSC hub</text>
</g>
<!-- 10&#45;&gt;15 -->
<g id="edge19" class="edge">
<title>10&#45;&gt;15</title>
<path fill="none" stroke="black" d="M811.76,-96C988.81,-96 1292.5,-96 1292.5,-96 1292.5,-96 1292.5,-46.09 1292.5,-46.09"/>
<polygon fill="black" stroke="black" points="1296,-46.09 1292.5,-36.09 1289,-46.09 1296,-46.09"/>
</g>
</g>
</svg>
